<?xml version="1.0" standalone="no"?>
<!DOCTYPE svg PUBLIC "-//W3C//DTD SVG 20010904//EN"
 "http://www.w3.org/TR/2001/REC-SVG-20010904/DTD/svg10.dtd">
<svg version="1.0" xmlns="http://www.w3.org/2000/svg"
 width="512.000000pt" height="512.000000pt" viewBox="0 0 512.000000 512.000000"
 preserveAspectRatio="xMidYMid meet">
<metadata>
Created by potrace 1.16, written by Peter Selinger 2001-2019
</metadata>
<g transform="translate(0.000000,512.000000) scale(0.100000,-0.100000)"
fill="#000000" stroke="none">
<path d="M1120 4944 c-212 -45 -390 -225 -435 -439 -22 -105 -22 -3795 0
-3900 34 -164 148 -314 295 -388 141 -71 68 -68 1573 -65 l1352 3 66 22 c170
58 304 191 367 364 l27 74 3 1500 c1 825 0 1511 -3 1525 -7 28 -1252 1282
-1297 1306 -40 21 -1850 20 -1948 -2z m1772 -601 c4 -377 5 -378 31 -459 48
-146 152 -266 289 -335 108 -54 148 -59 551 -59 l367 0 -2 -1422 -3 -1423 -22
-47 c-30 -66 -105 -143 -172 -175 l-56 -28 -1355 0 -1355 0 -56 28 c-67 32
-142 109 -172 175 l-22 47 -3 1890 c-2 2075 -6 1940 58 2037 38 57 86 94 159
125 l56 23 852 0 851 0 4 -377z m841 -621 c-126 -1 -259 2 -296 8 -110 17
-186 62 -242 144 -57 84 -65 136 -65 426 l0 255 415 -415 415 -415 -227 -3z"/>
<path d="M1328 2951 c-30 -27 -33 -35 -33 -86 0 -51 3 -59 33 -86 l32 -29 666
0 666 0 34 34 c29 29 34 41 34 81 0 40 -5 52 -34 81 l-34 34 -666 0 -666 0
-32 -29z"/>
<path d="M1348 2104 c-79 -42 -76 -169 6 -208 31 -14 139 -16 1166 -16 1027 0
1135 2 1166 16 59 28 81 102 49 164 -33 64 38 60 -1217 60 -992 -1 -1147 -3
-1170 -16z"/>
<path d="M1328 1221 c-30 -27 -33 -35 -33 -86 0 -51 3 -59 33 -86 l32 -29
1160 0 1160 0 32 29 c30 27 33 35 33 86 0 51 -3 59 -33 86 l-32 29 -1160 0
-1160 0 -32 -29z"/>
</g>
</svg>
