<?xml version="1.0" standalone="no"?>
<!DOCTYPE svg PUBLIC "-//W3C//DTD SVG 20010904//EN"
 "http://www.w3.org/TR/2001/REC-SVG-20010904/DTD/svg10.dtd">
<svg version="1.0" xmlns="http://www.w3.org/2000/svg"
 width="512.000000pt" height="512.000000pt" viewBox="0 0 512.000000 512.000000"
 preserveAspectRatio="xMidYMid meet">
<metadata>
Created by potrace 1.16, written by Peter Selinger 2001-2019
</metadata>
<g transform="translate(0.000000,512.000000) scale(0.100000,-0.100000)"
fill="currentColor" stroke="none">
<path d="M3770 5106 c-413 -87 -715 -420 -748 -824 -16 -189 9 -334 87 -497
130 -273 389 -468 685 -515 107 -18 311 -8 404 19 156 45 279 117 395 230 122
117 215 272 252 418 9 37 19 74 21 81 6 21 61 -13 81 -51 17 -30 18 -104 21
-1164 l2 -1133 -2410 0 -2410 0 2 1133 c3 1060 4 1134 21 1164 36 67 -54 63
1334 63 1376 0 1291 -4 1313 56 11 29 -5 81 -30 94 -12 6 -483 10 -1298 10
l-1279 0 -61 -31 c-66 -33 -116 -86 -138 -147 -18 -51 -19 -2750 -1 -2799 22
-60 72 -117 128 -148 l54 -30 653 -3 652 -3 0 -434 0 -435 -140 0 c-82 0 -149
-5 -164 -11 -50 -23 -57 -103 -13 -134 32 -23 2722 -23 2754 0 44 31 37 111
-13 134 -15 6 -82 11 -164 11 l-140 0 0 435 0 434 653 3 652 3 54 30 c56 31
106 88 128 148 8 24 12 379 12 1400 1 1501 5 1396 -59 1477 -28 35 -135 100
-165 100 -8 0 -14 28 -19 79 -12 153 -73 326 -157 447 -119 174 -306 308 -516
370 -109 32 -327 42 -433 20z m332 -161 c412 -87 685 -496 602 -903 -33 -162
-93 -271 -219 -397 -72 -73 -108 -100 -181 -138 -518 -266 -1125 103 -1125
683 0 366 252 677 611 754 85 19 228 19 312 1z m866 -3548 c-5 -123 -18 -161
-68 -191 -26 -15 -218 -16 -2340 -16 -2122 0 -2314 1 -2340 16 -50 30 -63 68
-68 191 l-5 113 2413 0 2413 0 -5 -113z m-1778 -667 l0 -300 -630 0 -630 0 0
184 0 185 -26 20 c-30 24 -52 26 -88 10 -43 -20 -47 -49 -44 -293 3 -226 3
-228 27 -247 22 -18 50 -19 761 -19 711 0 739 1 761 19 l24 19 3 361 3 361 54
0 55 0 0 -435 0 -435 -900 0 -900 0 0 435 0 435 765 0 765 0 0 -300z"/>
<path d="M3770 4752 c-22 -18 -26 -30 -30 -108 l-5 -88 -33 -7 c-44 -9 -99
-63 -114 -110 l-11 -37 -84 -4 c-75 -3 -87 -6 -104 -27 -26 -32 -25 -82 4
-109 20 -19 35 -22 105 -22 l82 0 0 -50 0 -50 -80 0 c-73 0 -83 -3 -105 -25
-33 -32 -33 -78 0 -110 21 -22 33 -25 103 -25 l79 0 12 -39 c15 -51 61 -97
112 -112 l39 -12 0 -79 c0 -70 3 -82 25 -103 15 -16 36 -25 55 -25 19 0 40 9
55 25 22 22 25 32 25 105 l0 80 50 0 50 0 0 -84 c0 -79 2 -86 26 -105 27 -21
59 -26 89 -15 28 11 45 60 45 133 0 69 1 71 28 77 59 14 122 83 122 134 0 18
6 20 81 20 92 0 111 7 129 50 10 24 10 36 0 60 -18 43 -37 50 -129 50 l-81 0
0 50 0 50 84 0 c95 0 122 13 132 67 5 27 1 37 -24 63 -29 28 -35 30 -111 30
-75 0 -81 2 -81 20 0 50 -46 104 -107 125 l-38 13 -5 82 c-5 74 -9 85 -33 106
-34 29 -66 30 -101 3 -24 -19 -26 -26 -26 -105 l0 -84 -49 0 -49 0 -3 85 c-4
95 -14 112 -70 121 -26 4 -41 1 -59 -14z m380 -562 l0 -210 -205 0 -205 0 0
203 c0 112 3 207 7 210 3 4 96 7 205 7 l198 0 0 -210z"/>
<path d="M815 3499 c-134 -19 -277 -121 -342 -244 -42 -80 -54 -130 -55 -224
0 -137 37 -232 133 -338 83 -91 89 -110 89 -267 0 -209 19 -226 257 -226 233
0 253 19 253 233 0 152 6 170 86 259 97 106 133 199 134 339 1 295 -255 510
-555 468z m190 -176 c36 -12 67 -33 111 -77 76 -77 99 -135 92 -240 -6 -87
-28 -134 -107 -221 -32 -36 -67 -85 -77 -110 l-19 -45 -110 0 -110 0 -18 43
c-10 24 -49 78 -87 121 -78 88 -102 143 -101 234 0 82 31 159 88 216 98 99
201 124 338 79z m-15 -908 l0 -55 -95 0 -95 0 0 55 0 55 95 0 95 0 0 -55z"/>
<path d="M1695 3393 c-75 -39 -114 -105 -115 -191 0 -84 20 -116 165 -262
l135 -135 -131 -130 c-72 -72 -139 -147 -150 -167 -28 -54 -26 -142 4 -199 34
-64 93 -102 167 -107 106 -8 120 2 377 261 241 242 253 258 253 342 0 84 -12
100 -248 338 -125 126 -244 237 -264 248 -47 24 -150 25 -193 2z m332 -355
c132 -132 213 -220 213 -232 0 -26 -417 -446 -443 -446 -33 0 -57 20 -57 47 0
22 34 62 165 193 157 159 165 168 165 206 0 37 -7 47 -165 204 -168 168 -186
195 -153 228 34 34 58 16 275 -200z"/>
<path d="M2737 2617 c-93 -29 -147 -107 -147 -210 0 -56 4 -71 33 -113 19 -29
49 -57 76 -71 l44 -23 899 0 c788 0 903 2 936 15 79 33 124 104 124 194 0 70
-12 99 -58 150 -66 74 -29 71 -1003 70 -633 0 -876 -4 -904 -12z m1781 -163
c24 -17 30 -62 10 -82 -17 -17 -1749 -17 -1766 0 -20 20 -14 65 10 82 20 14
119 16 873 16 754 0 853 -2 873 -16z"/>
</g>
</svg>
